<?xml version="1.0" standalone="no"?><!DOCTYPE svg PUBLIC "-//W3C//DTD SVG 1.1//EN" "http://www.w3.org/Graphics/SVG/1.1/DTD/svg11.dtd"><svg t="1557933414102" class="icon" style="" viewBox="0 0 1024 1024" version="1.1" xmlns="http://www.w3.org/2000/svg" p-id="2641" xmlns:xlink="http://www.w3.org/1999/xlink" width="128" height="128"><defs><style type="text/css"></style></defs><path d="M784.576512 442.86976c-77.860864 0-275.355648 8.390656-342.020096-17.866752-73.125888-28.807168-110.196736-92.162048-110.196736-166.2464 0-66.912256 33.619968-130.689024 95.143936-181.731328-226.711552 43.008-396.130304 195.710976-396.130304 400.982016 0 123.91424 47.886336 208.089088 119.851008 280.64768H22.355968s86.808576 151.71584 497.072128 151.71584h230.961152c244.353024 0 254.103552-32.524288 254.103552-203.956224 0-132.222976-37.2736-263.544832-219.916288-263.544832z m-48.648192 305.88928h-54.943744c-19.310592 0-27.138048-14.372864-17.483776-30.691328l27.467776-47.005696c9.65632-16.318464 25.307136-16.607232 34.961408-0.28672l27.475968 47.437824c9.65632 16.318464 1.83296 30.54592-17.477632 30.54592z" p-id="2642" fill="#1296db"></path><path d="M642.516992 372.498432h35.129344v78.592h-35.129344v-78.592zM889.933824 197.218304c-21.858304-41.96352-65.73056-70.633472-116.320256-70.633472-48.508928 0-90.85952 26.34752-113.53088 65.511424-22.673408-39.163904-65.024-65.511424-113.532928-65.511424-50.589696 0-94.461952 28.669952-116.320256 70.633472a17.465344 17.465344 0 0 0-2.779136 9.457664 17.563648 17.563648 0 0 0 17.563648 17.563648 17.55136 17.55136 0 0 0 15.603712-9.5232l0.098304 0.049152c15.755264-31.449088 48.26112-53.051392 85.83168-53.051392 53.000192 0 95.967232 42.964992 95.967232 95.967232v78.592h35.129344v-78.592c0-53.000192 42.964992-95.967232 95.967232-95.967232 37.57056 0 70.076416 21.602304 85.83168 53.051392l0.098304-0.049152a17.553408 17.553408 0 0 0 15.603712 9.5232 17.563648 17.563648 0 0 0 17.563648-17.563648 17.416192 17.416192 0 0 0-2.77504-9.457664z" p-id="2643" fill="#1296db"></path></svg>